<svg xmlns="http://www.w3.org/2000/svg" width="594.092" height="168.541" viewBox="0 0 594.092 168.541">
  <g id="instagram-2" transform="translate(0 0)">
    <path id="Caminho_24" data-name="Caminho 24" d="M30.577.586C18.417,5.68,5.049,20.053.827,38.108c-5.347,22.869,16.9,32.54,18.729,29.374,2.148-3.727-3.987-4.987-5.25-16.853C12.674,35.3,19.8,18.178,28.767,10.664c1.667-1.4,1.587.547,1.587,4.141,0,6.428-.355,64.122-.355,76.164,0,16.293-.673,21.438-1.882,26.521-1.225,5.152-3.193,8.633-1.7,9.975,1.667,1.5,8.783-2.068,12.9-7.818,4.94-6.9,6.669-15.178,6.98-24.172.375-10.842.359-28.046.375-37.859.015-9,.151-35.354-.158-51.2C46.44,2.533,35.663-1.544,30.577.586ZM591.424,86.18c-1.764,0-2.568,1.818-3.234,4.879-2.311,10.643-4.738,13.045-7.869,13.045-3.5,0-6.642-5.27-7.449-15.818-.635-8.294-.533-23.565.279-38.754.166-3.121-.7-6.209-9.066-9.25-3.6-1.309-8.838-3.234-11.445,3.059-7.365,17.779-10.248,31.895-10.926,37.627-.035.3-.4.357-.463-.336a292.221,292.221,0,0,1-1.518-30.471c-.023-3.421-.748-6.333-4.524-8.717-2.45-1.548-9.89-4.283-12.569-1.028-2.32,2.662-5.009,9.826-7.8,18.318-2.27,6.9-3.851,11.57-3.851,11.57s.029-18.623.057-25.687a3.619,3.619,0,0,0-2.367-3.714c-2.48-.72-7.369-1.923-9.443-1.923-2.561,0-3.188,1.431-3.188,3.516,0,.273-.4,24.519-.4,41.473,0,.736,0,1.54,0,2.394-1.416,7.792-6.008,18.37-11,18.37s-7.358-4.422-7.358-24.634c0-11.79.354-16.918.527-25.445.1-4.912.3-8.685.285-9.54-.037-2.625-4.576-3.948-6.688-4.438a19.811,19.811,0,0,0-5.406-.6,3.375,3.375,0,0,0-3.479,3.291c0,.986.011,2.86.011,2.86A19.52,19.52,0,0,0,452.88,38.4c-7.566-2.246-15.461-.255-21.416,8.077-4.733,6.621-7.586,14.121-8.709,24.895a73.88,73.88,0,0,0,.906,22.619c-1.763,7.622-5.036,10.745-8.62,10.745-5.2,0-8.975-8.492-8.537-23.18.289-9.661,2.222-16.44,4.335-26.248.9-4.182.169-6.37-1.667-8.468-1.684-1.925-5.271-2.907-10.43-1.7-3.674.861-8.928,1.789-13.733,2.5a27.8,27.8,0,0,0,.528-3.2c1.25-10.7-10.375-9.83-14.084-6.413-2.214,2.04-3.721,4.446-4.293,8.772a10.345,10.345,0,0,0,4.691,10.1,104.47,104.47,0,0,1-10.988,27.336A118.25,118.25,0,0,1,354.009,95q-.014-1.869-.02-3.738c-.057-17.679.179-31.593.282-36.608.1-4.912.3-8.584.287-9.439-.027-1.92-1.148-2.646-3.48-3.563a24.7,24.7,0,0,0-7.029-1.57c-3.191-.248-5.115,1.444-5.064,3.446.01.378.01,2.7.01,2.7a19.52,19.52,0,0,0-9.656-7.828c-7.566-2.246-15.461-.255-21.416,8.077-4.732,6.621-7.831,15.912-8.709,24.812a76.07,76.07,0,0,0,.448,21.282c-1.2,5.946-4.662,12.164-8.573,12.164-5,0-7.845-4.422-7.845-24.634,0-11.79.354-16.917.527-25.445.1-4.912.3-8.685.285-9.54-.037-2.625-4.576-3.948-6.688-4.438a19.4,19.4,0,0,0-5.583-.591,3.59,3.59,0,0,0-3.292,3.165v2.976a19.52,19.52,0,0,0-9.656-7.828c-7.566-2.246-15.417-.223-21.416,8.077-3.912,5.412-7.079,11.412-8.709,24.694a83.2,83.2,0,0,0-.652,10.792c-1.56,9.54-8.449,20.535-14.086,20.535-3.3,0-6.439-6.4-6.439-20.029,0-18.16,1.125-44.015,1.314-46.507,0,0,7.121-.121,8.5-.137,3.553-.039,6.77.045,11.5-.2,2.373-.121,4.659-8.637,2.21-9.691-1.109-.477-8.955-.9-12.064-.961-2.615-.059-9.9-.6-9.9-.6s.653-17.162.806-18.975c.129-1.512-1.826-2.289-2.947-2.762A40.473,40.473,0,0,0,198.9.34c-3.994-.824-5.807-.018-6.16,3.354-.533,5.115-.809,20.1-.809,20.1-2.932,0-12.943-.573-15.875-.573-2.725,0-5.664,11.715-1.9,11.859,4.333.168,11.884.313,16.89.464,0,0-.223,26.282-.223,34.4,0,.863,0,1.694.009,2.5a39.674,39.674,0,0,1-12.46,22.117c2.084-9.5-2.173-16.634-9.84-22.673-2.826-2.226-8.4-6.438-14.642-11.055A37.675,37.675,0,0,0,160.713,50.1c2.271-5.076,2.369-10.885-3.206-12.166-9.209-2.117-16.8,4.646-19.069,11.867-1.755,5.6-.819,9.745,2.619,14.058.251.315.523.636.8.96-2.079,4.007-4.935,9.4-7.354,13.586-6.715,11.616-11.786,20.8-15.62,20.8-3.064,0-3.022-9.328-3.022-18.062,0-7.529.556-18.849,1-30.569.147-3.876-1.792-6.084-5.041-8.084-1.974-1.215-6.187-3.6-8.626-3.6-3.652,0-14.189.5-24.145,29.3-1.255,3.63-3.72,10.244-3.72,10.244L75.545,43.8a2.414,2.414,0,0,0-1.423-2.135,24.6,24.6,0,0,0-10.143-2.773q-2.847,0-2.846,2.643l-.348,54.183a79.469,79.469,0,0,0,.515,11.02,11.535,11.535,0,0,0,1.876,4.832,5.377,5.377,0,0,0,3.3,2.111c1.442.3,9.339,1.311,9.75-1.707.492-3.617.51-7.529,4.657-22.119,6.456-22.715,14.873-33.8,18.831-37.734.691-.688,1.481-.729,1.443.4-.168,4.979-.762,17.424-1.163,28-1.072,28.292,4.075,33.536,11.43,33.536,5.627,0,13.559-5.592,22.062-19.744,5.3-8.82,10.447-17.468,14.146-23.7,2.577,2.386,5.468,4.953,8.359,7.7,6.716,6.374,8.921,12.431,7.458,18.177-1.119,4.393-5.333,8.92-12.833,4.52-2.186-1.283-3.12-2.275-5.317-3.723a3.775,3.775,0,0,0-4.064-.195,14.465,14.465,0,0,0-5.332,8.145c-.892,3.244,2.357,4.959,5.725,6.459,2.9,1.291,9.133,2.461,13.108,2.594,15.487.518,27.9-7.478,36.531-28.1,1.547,17.813,8.126,27.893,19.559,27.893,7.643,0,15.306-9.879,18.657-19.6a34.459,34.459,0,0,0,4.225,10.32c8.809,13.957,25.9,10.953,34.482-.9,2.653-3.662,3.058-4.979,3.058-4.979,1.252,11.191,10.264,15.1,15.424,15.1,5.779,0,11.746-2.732,15.928-12.147a28.767,28.767,0,0,0,1.609,2.923c8.809,13.957,25.9,10.953,34.482-.9.4-.557.756-1.061,1.062-1.514l.252,7.352-7.9,7.248c-13.247,12.141-23.311,21.35-24.051,32.074-.941,13.674,10.142,18.756,18.539,19.422,8.9.707,16.539-4.215,21.227-11.1,4.125-6.062,6.824-19.111,6.627-32-.079-5.161-.209-11.723-.312-18.757A150.253,150.253,0,0,0,368.848,86.4c5.258-8.707,10.892-20.4,13.776-29.5,0,0,4.895.042,10.119-.3,1.671-.109,2.15.231,1.842,1.457-.373,1.479-6.6,25.5-.917,41.5,3.89,10.953,12.659,14.477,17.858,14.477,6.086,0,11.907-4.6,15.027-11.421a24.336,24.336,0,0,0,1.2,2.177c8.809,13.957,25.838,10.936,34.482-.9a35.428,35.428,0,0,0,3.058-4.979c1.855,11.582,10.862,15.16,16.021,15.16,5.374,0,10.474-2.2,14.611-11.994.173,4.312.445,7.836.875,8.947.262.68,1.789,1.533,2.9,1.945a22.219,22.219,0,0,0,11.785.586c1.285-.26,2.287-1.291,2.424-3.953.359-6.99.139-18.734,2.258-27.463C519.722,67.493,523.04,61.81,524.614,59c.881-1.576,1.875-1.836,1.911-.168.073,3.375.241,13.286,1.62,26.6,1.012,9.793,2.363,15.582,3.4,17.414,2.965,5.238,6.627,5.486,9.609,5.486,1.9,0,5.864-.523,5.509-3.857-.173-1.625.13-11.668,3.637-26.1a127.147,127.147,0,0,1,7.485-21.052c.508-1.148.744-.243.736-.067-.29,6.49-.941,27.718,1.7,39.328,3.584,15.729,13.951,17.488,17.564,17.488,7.713,0,14.021-5.867,16.146-21.305.517-3.719-.241-6.588-2.512-6.588ZM268.335,76.636c-.442,8.17-2.036,15-4.594,19.961-4.628,8.979-13.785,11.826-17.822-1.148-2.911-9.355-1.92-22.112-.709-29,1.8-10.227,6.3-17.477,13.322-16.79C265.748,50.363,269.256,59.636,268.335,76.636Zm70.5.118c-.412,7.715-2.412,15.465-4.594,19.844-4.5,9.041-13.92,11.867-17.822-1.148-2.668-8.893-2.029-20.4-.709-27.653,1.713-9.41,5.865-18.139,13.322-18.139C336.283,49.657,339.858,57.611,338.836,76.754Zm1.84,52.635c-.1,14.074-2.312,26.414-7.062,30-6.737,5.082-15.792,1.27-13.917-9,1.659-9.088,9.505-18.369,21-29.709C340.7,120.678,340.719,123.264,340.676,129.389Zm121.7-52.553c-.392,8.47-2.267,15.091-4.594,19.761-4.505,9.041-13.854,11.848-17.822-1.148-2.163-7.084-2.264-18.916-.709-28.8,1.583-10.07,6-17.677,13.322-16.99C459.794,50.334,463.173,59.636,462.378,76.836Z" fill="#231f20"/>
  </g>
</svg>
