<svg xmlns="http://www.w3.org/2000/svg" width="20" height="22" viewBox="0 0 20 22">
  <g id="Grupo_35" data-name="Grupo 35" transform="translate(-989 -16)">
    <path id="Caminho_3" data-name="Caminho 3" d="M0,0,1.053-1.086H2.942L4,0V8H0Z" transform="translate(997 30)" fill="#fff"/>
    <g id="Caminho_2" data-name="Caminho 2" transform="translate(989 26.047)" fill="#262626">
      <path d="M 19.25 11.16390800476074 L 12.84595012664795 11.16390800476074 L 12.84595012664795 4.629968643188477 L 12.84595012664795 4.331688404083252 L 12.64109992980957 4.114878177642822 L 12.39109992980957 3.850288391113281 L 12.16913986206055 3.615378379821777 L 11.84595012664795 3.615378379821777 L 8.269530296325684 3.615378379821777 L 7.931950092315674 3.615378379821777 L 7.708109855651855 3.868078470230103 L 7.473740100860596 4.132668495178223 L 7.285160064697266 4.345568180084229 L 7.285160064697266 4.629968643188477 L 7.285160064697266 11.16390800476074 L 0.75 11.16390800476074 L 0.75 0.2495142370462418 L 9.379907608032227 -9.296871185302734 L 10.65057563781738 -9.296871185302734 L 19.25 0.2487772554159164 L 19.25 11.16390800476074 Z" stroke="none"/>
      <path d="M 9.712935447692871 -8.546872138977051 L 1.5 0.5382697582244873 L 1.5 10.41390705108643 L 6.535160064697266 10.41390705108643 L 6.535160064697266 4.62996768951416 L 6.535160064697266 4.0611572265625 L 6.912320137023926 3.635367393493652 L 7.146690368652344 3.370777606964111 L 7.594369888305664 2.865377426147461 L 8.269530296325684 2.865377426147461 L 11.84595012664795 2.865377426147461 L 12.49233055114746 2.865377426147461 L 12.93624019622803 3.335207462310791 L 13.18624019622803 3.599797487258911 L 13.59595012664795 4.033407211303711 L 13.59595012664795 4.62996768951416 L 13.59595012664795 10.41390705108643 L 18.5 10.41390705108643 L 18.5 0.5367956161499023 L 10.31675243377686 -8.546872138977051 L 9.712935447692871 -8.546872138977051 M 9.046870231628418 -10.04687213897705 L 10.98437023162842 -10.04687213897705 L 20 -0.03923249244689941 L 20 11.91390705108643 L 12.09595012664795 11.91390705108643 L 12.09595012664795 4.62996768951416 L 11.84595012664795 4.365377426147461 L 8.269530296325684 4.365377426147461 L 8.035160064697266 4.62996768951416 L 8.035160064697266 11.91390705108643 L 0 11.91390705108643 L 0 -0.03923249244689941 L 9.046870231628418 -10.04687213897705 Z" stroke="none" fill="#262626"/>
    </g>
  </g>
</svg>
