<svg xmlns="http://www.w3.org/2000/svg" width="22" height="18.45" viewBox="0 0 22 18.45"><g transform="translate(-1076 -18)"><g transform="translate(1076 18)" fill="#fff"><path d="M 4.698261737823486 11.98285675048828 C 3.331098556518555 10.82793235778809 0.75 8.194547653198242 0.75 5.999996185302734 C 0.75 3.105136156082153 3.105139970779419 0.7499962449073792 6 0.7499962449073792 C 8.89486026763916 0.7499962449073792 11.25 3.105136156082153 11.25 5.999996185302734 C 11.25 7.08203649520874 10.05475997924805 8.522096633911133 7.88444995880127 10.05490589141846 C 6.620260715484619 10.9477596282959 5.339253902435303 11.649094581604 4.698261737823486 11.98285675048828 Z" stroke="none"/><path d="M 6 1.499996185302734 C 3.51869010925293 1.499996185302734 1.5 3.518686294555664 1.5 5.999996185302734 C 1.5 6.960796356201172 2.173000335693359 8.257196426391602 3.395039558410645 9.650386810302734 C 3.899978637695313 10.22604656219482 4.411524772644043 10.71907043457031 4.806234836578369 11.0755615234375 C 5.485896587371826 10.70545482635498 6.483061790466309 10.12771034240723 7.466469764709473 9.431905746459961 C 9.703089714050293 7.849396228790283 10.5 6.621476173400879 10.5 5.999996185302734 C 10.5 3.518686294555664 8.48130989074707 1.499996185302734 6 1.499996185302734 M 6 -3.814697265625e-06 C 9.31371021270752 -3.814697265625e-06 12 2.686296463012695 12 5.999996185302734 C 12 9.313706398010254 4.603270053863525 12.87161636352539 4.603270053863525 12.87161636352539 C 4.603270053863525 12.87161636352539 0 9.313706398010254 0 5.999996185302734 C 0 2.686296463012695 2.68628978729248 -3.814697265625e-06 6 -3.814697265625e-06 Z" stroke="none" fill="#262626"/></g><g transform="translate(1086 18)" fill="#fff"><path d="M 6.771773815155029 12.48396968841553 C 6.163053512573242 12.0908145904541 5.016609668731689 11.31524181365967 3.884459972381592 10.36064529418945 C 1.863170027732849 8.656345367431641 0.75 7.107705593109131 0.75 5.999995708465576 C 0.75 3.105135679244995 3.105139970779419 0.7499955892562866 6 0.7499955892562866 C 8.89486026763916 0.7499955892562866 11.25 3.105135679244995 11.25 5.999995708465576 C 11.25 8.207152366638184 8.318881988525391 11.16382694244385 6.771773815155029 12.48396968841553 Z" stroke="none"/><path d="M 6 1.499995231628418 C 3.51869010925293 1.499995231628418 1.5 3.518685340881348 1.5 5.999995708465576 C 1.5 6.320235729217529 1.705820083618164 7.538925647735596 4.354179859161377 9.775665283203125 C 5.213481903076172 10.50140953063965 6.083760738372803 11.12225437164307 6.70691967010498 11.54247665405273 C 8.297686576843262 10.10088348388672 10.5 7.648439407348633 10.5 5.999995708465576 C 10.5 3.518685340881348 8.48130989074707 1.499995231628418 6 1.499995231628418 M 6 -4.76837158203125e-06 C 9.31371021270752 -4.76837158203125e-06 12 2.686295509338379 12 5.999995708465576 C 12 9.313705444335938 6.830930233001709 13.40713596343994 6.830930233001709 13.40713596343994 C 6.830930233001709 13.40713596343994 0 9.313705444335938 0 5.999995708465576 C 0 2.686295509338379 2.68628978729248 -4.76837158203125e-06 6 -4.76837158203125e-06 Z" stroke="none" fill="#262626"/></g><g transform="translate(1081 24)" fill="#fff"><path d="M 6.003312110900879 11.45447444915771 L -0.3460659384727478 5.880821704864502 C 0.9785861968994141 4.069587230682373 3.850609064102173 0.7499995827674866 6.000002384185791 0.7499995827674866 C 7.130142688751221 0.7499995827674866 8.702072143554688 1.734019637107849 10.42620277404785 3.520789623260498 C 11.29670238494873 4.422906398773193 12.01613235473633 5.329836368560791 12.43424129486084 5.884559631347656 L 6.003312110900879 11.45447444915771 Z" stroke="none"/><path d="M 6.000002384185791 1.5 C 5.573962688446045 1.5 4.35070276260376 1.744009971618652 2.198752403259277 4.004209518432617 C 1.599348068237305 4.633767604827881 1.07338809967041 5.270401477813721 0.6761884689331055 5.78021240234375 L 6.006621837615967 10.4594087600708 L 11.40659999847412 5.78241491317749 C 11.00844192504883 5.282508850097656 10.48467826843262 4.661476612091064 9.886502265930176 4.041569709777832 C 7.672992706298828 1.747649192810059 6.431172847747803 1.5 6.000002384185791 1.5 M 6.000002384185791 0 C 9.313713073730469 0 13.44653224945068 5.999999523162842 13.44653224945068 5.999999523162842 L 6.000002384185791 12.44953918457031 L -1.347167015075684 5.999999523162842 C -1.347167015075684 5.999999523162842 2.68629264831543 0 6.000002384185791 0 Z" stroke="none" fill="#262626"/></g><path d="M0,0H12s3.505,4.188-.281,7.077S4.7,11.033,0,6.859,0,0,0,0Z" transform="translate(1081 22.417)" fill="#fff"/><g transform="translate(1088 24) rotate(180)" fill="#fff"><path d="M1,0,2,2H0Z" stroke="none"/><path d="M 1 0 L 2 2 L 0 2 L 1 0 Z" stroke="none" fill="#262626"/></g></g></svg>
