<svg xmlns="http://www.w3.org/2000/svg" width="22" height="22" viewBox="0 0 22 22"><g transform="translate(-263 -771)"><g transform="translate(263 771)" fill="none"><path d="M11,0A11,11,0,0,1,22,11a52.842,52.842,0,0,1-.7,5.549L22,22l-5.71-1.493S12.42,22,11,22A11,11,0,0,1,11,0Z" stroke="none"/><path d="M 11 1.5 C 5.761680603027344 1.5 1.5 5.761680603027344 1.5 11 C 1.5 16.23831939697266 5.761680603027344 20.5 11 20.5 C 11.70285034179688 20.5 14.01315021514893 19.77709007263184 15.7504301071167 19.10736083984375 L 16.20178031921387 18.93325042724609 L 16.66980934143066 19.05563926696777 L 20.23110580444336 19.98696517944336 L 19.81682968139648 16.73872947692871 L 19.78836059570313 16.51548957824707 L 19.82666015625 16.29372024536133 C 20.01394081115723 15.20912933349609 20.5 12.14383029937744 20.5 11 C 20.5 5.761680603027344 16.23831939697266 1.5 11 1.5 M 11 0 C 17.07513046264648 0 22 4.924869537353516 22 11 C 22 12.5228796005249 21.30477905273438 16.54895973205566 21.30477905273438 16.54895973205566 L 22 22 L 16.2903003692627 20.50683975219727 C 16.2903003692627 20.50683975219727 12.41967964172363 22 11 22 C 4.924869537353516 22 0 17.07513046264648 0 11 C 0 4.924869537353516 4.924869537353516 0 11 0 Z" stroke="none" fill="#262626"/></g></g></svg>