<svg xmlns="http://www.w3.org/2000/svg" width="56" height="57" viewBox="0 0 56 57"><g transform="translate(-20 -59)"><g transform="translate(20 59)" fill="#dbdbdb" stroke="#c8c8c8" stroke-width="1"><circle cx="28" cy="28" r="28" stroke="none"/><circle cx="28" cy="28" r="27.5" fill="none"/></g><path d="M13.8,0c2.424,0,7.336.058,10.221,1.974,3.859,3.02,6.442,5.688,1.282,7.738a31.913,31.913,0,0,1-11.5,2.823c-3.055.1-7.28-1.158-10.416-2.363-6.6-2.538-4.811-4.163,0-8.2C5.536.15,11,0,13.8,0Z" transform="translate(34.2 99.431)" fill="#fff"/><ellipse cx="12" cy="12.5" rx="12" ry="12.5" transform="translate(36 72)" fill="#fff"/><circle cx="8" cy="8" r="8" transform="translate(59 100)" fill="#63bef9"/><path d="M4184,10.053v9.533" transform="translate(-4117 93.133)" fill="none" stroke="#fff" stroke-width="1.5"/><path d="M4184,10.053v9.533" transform="translate(81.819 -4076.048) rotate(90)" fill="none" stroke="#fff" stroke-width="1.5"/></g></svg>