<svg xmlns="http://www.w3.org/2000/svg" width="22" height="22" viewBox="0 0 22 22"><g transform="translate(-1032 -16)"><g transform="translate(1032 16)" fill="#fff"><path d="M 11 21.25 C 5.348130226135254 21.25 0.75 16.65187072753906 0.75 11 C 0.75 5.348130226135254 5.348130226135254 0.75 11 0.75 C 16.65187072753906 0.75 21.25 5.348130226135254 21.25 11 C 21.25 16.65187072753906 16.65187072753906 21.25 11 21.25 Z" stroke="none"/><path d="M 11 1.5 C 5.761680603027344 1.5 1.5 5.761680603027344 1.5 11 C 1.5 16.23831939697266 5.761680603027344 20.5 11 20.5 C 16.23831939697266 20.5 20.5 16.23831939697266 20.5 11 C 20.5 5.761680603027344 16.23831939697266 1.5 11 1.5 M 11 0 C 17.07513046264648 0 22 4.924869537353516 22 11 C 22 17.07513046264648 17.07513046264648 22 11 22 C 4.924869537353516 22 0 17.07513046264648 0 11 C 0 4.924869537353516 4.924869537353516 0 11 0 Z" stroke="none" fill="#262626"/></g><path d="M1302.53-73.237l-8.616,4.805-4.971,8.285,8.782-4.805Z" transform="translate(-253 94)" fill="#262626"/></g></svg>