<svg width="193" height="70" viewBox="0 0 193 70" fill="none" xmlns="http://www.w3.org/2000/svg">
<path d="M9.93364 0.239807C5.98324 2.32517 1.6404 8.20912 0.268807 15.6004C-1.46826 24.9624 5.75908 28.9215 6.35327 27.6254C7.05108 26.0997 5.05802 25.5838 4.64771 20.7262C4.11752 14.4509 6.43253 7.44154 9.34563 4.3655C9.88718 3.79237 9.8612 4.58942 9.8612 6.06072C9.8612 8.69219 9.74587 32.3107 9.74587 37.2404C9.74587 43.9104 9.52723 46.0166 9.13446 48.0975C8.7365 50.2066 8.09716 51.6316 8.58219 52.181C9.12374 52.7951 11.4355 51.3344 12.773 48.9805C14.3778 46.1558 14.9395 42.767 15.0406 39.0851C15.1624 34.6466 15.1572 27.6037 15.1624 23.5865C15.1673 19.9021 15.2115 9.11344 15.1111 2.62647C15.087 1.03686 11.5859 -0.632163 9.93364 0.239807ZM192.135 35.2799C191.562 35.2799 191.301 36.0242 191.084 37.2773C190.334 41.6342 189.545 42.6176 188.528 42.6176C187.391 42.6176 186.37 40.4602 186.108 36.1421C185.902 32.7467 185.935 26.4951 186.199 20.2771C186.253 18.9995 185.971 17.7353 183.254 16.4904C182.084 15.9545 180.382 15.1665 179.535 17.7427C177.143 25.021 176.206 30.7997 175.986 33.1462C175.974 33.2691 175.856 33.2924 175.835 33.0087C175.499 28.8643 175.334 24.7006 175.342 20.5346C175.335 19.1341 175.099 17.942 173.873 16.9661C173.077 16.3324 170.66 15.2127 169.789 16.5452C169.036 17.635 168.162 20.5678 167.255 24.0442C166.518 26.8689 166.004 28.7807 166.004 28.7807C166.004 28.7807 166.014 21.1569 166.023 18.265C166.045 17.9403 165.982 17.6153 165.843 17.3405C165.704 17.0656 165.497 16.8561 165.254 16.7446C164.448 16.4499 162.86 15.9574 162.186 15.9574C161.354 15.9574 161.15 16.5432 161.15 17.3967C161.15 17.5085 161.02 27.4342 161.02 34.3748C161.02 34.6761 161.02 35.0052 161.02 35.3548C160.56 38.5447 159.069 42.8751 157.447 42.8751C155.825 42.8751 155.057 41.0648 155.057 32.7905C155.057 27.964 155.172 25.8647 155.228 22.3739C155.26 20.3631 155.325 18.8185 155.32 18.4685C155.308 17.3939 153.834 16.8523 153.148 16.6517C152.574 16.4684 151.983 16.3858 151.391 16.4061C151.247 16.4004 151.103 16.4308 150.968 16.4955C150.833 16.5603 150.709 16.6581 150.604 16.7833C150.499 16.9085 150.414 17.0587 150.356 17.2252C150.297 17.3917 150.265 17.5711 150.261 17.7533C150.261 18.157 150.265 18.9241 150.265 18.9241C149.524 17.4536 148.422 16.3284 147.127 15.7199C144.669 14.8005 142.104 15.6156 140.169 19.0265C138.632 21.7369 137.705 24.8073 137.34 29.2179C137.06 32.3052 137.159 35.4284 137.634 38.4775C137.061 41.5978 135.998 42.8763 134.834 42.8763C133.145 42.8763 131.918 39.3999 132.06 33.387C132.154 29.432 132.782 26.6568 133.469 22.6417C133.761 20.9297 133.524 20.0339 132.927 19.1751C132.38 18.387 131.215 17.985 129.539 18.4791C128.345 18.8316 126.638 19.2115 125.077 19.5026C125.155 19.0705 125.212 18.6331 125.249 18.1926C125.655 13.8122 121.878 14.1684 120.673 15.5672C119.954 16.4024 119.465 17.3873 119.279 19.1583C119.193 19.9589 119.292 20.7735 119.562 21.5061C119.832 22.2387 120.262 22.8587 120.803 23.293C120.038 27.217 118.837 30.9847 117.233 34.4837C116.554 36.0021 115.811 37.4732 115.006 38.8906C115.003 38.3805 115.001 37.8704 115 37.3604C114.981 30.123 115.058 24.427 115.092 22.3739C115.124 20.3631 115.189 18.8599 115.185 18.5098C115.176 17.7238 114.812 17.4266 114.054 17.0512C113.322 16.6975 112.553 16.481 111.771 16.4085C110.734 16.307 110.109 16.9996 110.126 17.8192C110.129 17.974 110.129 18.9245 110.129 18.9245C109.388 17.4541 108.287 16.3288 106.992 15.7199C104.534 14.8005 101.969 15.6156 100.035 19.0265C98.4973 21.7369 97.4905 25.5405 97.2053 29.1839C96.9295 32.0823 96.9785 35.0151 97.3508 37.8962C96.961 40.3304 95.8363 42.8759 94.5657 42.8759C92.9414 42.8759 92.0171 41.0656 92.0171 32.7913C92.0171 27.9648 92.1322 25.8659 92.1884 22.3748C92.2208 20.3639 92.2858 18.8193 92.2809 18.4693C92.2689 17.3947 90.7943 16.8531 90.1082 16.6525C89.5162 16.4615 88.9052 16.38 88.2945 16.4106C88.0246 16.4366 87.7703 16.5801 87.5752 16.8165C87.3801 17.0529 87.2563 17.3674 87.225 17.7062V18.9245C86.4844 17.4541 85.3829 16.3288 84.0881 15.7199C81.6301 14.8005 79.0796 15.6287 77.1307 19.0265C75.8598 21.242 74.831 23.6983 74.3014 29.1356C74.1549 30.6009 74.0841 32.0767 74.0896 33.5536C73.5828 37.459 71.3448 41.9601 69.5135 41.9601C68.4415 41.9601 67.4217 39.3401 67.4217 33.7607C67.4217 26.3265 67.7872 15.742 67.8486 14.7219C67.8486 14.7219 70.162 14.6723 70.61 14.6658C71.7642 14.6498 72.8093 14.6842 74.3459 14.5839C75.1169 14.5344 75.8595 11.0481 75.0639 10.6167C74.7036 10.4214 72.1547 10.2482 71.1447 10.2233C70.2952 10.1991 67.9285 9.97763 67.9285 9.97763C67.9285 9.97763 68.1406 2.95192 68.1903 2.20972C68.2322 1.59075 67.5971 1.27266 67.2329 1.07903C66.3889 0.652546 65.5121 0.337552 64.6165 0.139101C63.3189 -0.198225 62.73 0.131732 62.6153 1.51215C62.4421 3.6061 62.3525 9.7406 62.3525 9.7406C61.3999 9.7406 58.1477 9.50603 57.1952 9.50603C56.3099 9.50603 55.3551 14.3019 56.5779 14.3608C57.9856 14.4296 60.4387 14.4889 62.0649 14.5508C62.0649 14.5508 61.9925 25.31 61.9925 28.6333C61.9925 28.9866 61.9925 29.3268 61.9954 29.6567C61.4695 33.152 60.0473 36.3329 57.9476 38.7109C58.6246 34.8218 57.2416 31.9013 54.7509 29.4291C53.8328 28.5178 52.022 26.7936 49.9941 24.9035C50.9252 23.6077 51.6748 22.1219 52.2107 20.5096C52.9485 18.4316 52.9803 16.0536 51.1692 15.5292C48.1775 14.6625 45.7114 17.4311 44.9743 20.3872C44.4041 22.6797 44.7082 24.3766 45.8251 26.1422C45.9066 26.2712 45.995 26.4026 46.085 26.5352C45.4096 28.1756 44.4818 30.3834 43.6959 32.097C41.5144 36.8523 39.867 40.612 38.6215 40.612C37.6261 40.612 37.6397 36.7934 37.6397 33.2179C37.6397 30.1357 37.8203 25.5016 37.9646 20.7037C38.0123 19.1169 37.3824 18.213 36.3269 17.3943C35.6856 16.8969 34.317 15.9205 33.5246 15.9205C32.3382 15.9205 28.9151 16.1252 25.6807 27.9152C25.273 29.4013 24.4722 32.1089 24.4722 32.1089L24.5423 17.9306C24.5383 17.7449 24.4927 17.5644 24.411 17.4098C24.3292 17.2552 24.2145 17.1327 24.08 17.0566C23.0594 16.3833 21.9354 15.9961 20.7849 15.9214C20.1683 15.9214 19.8601 16.282 19.8603 17.0033L19.7473 39.1845C19.72 40.6914 19.7759 42.1988 19.9146 43.6959C19.996 44.405 20.2044 45.0814 20.524 45.674C20.7824 46.1217 21.1652 46.4302 21.5961 46.5382C22.0645 46.661 24.63 47.0748 24.7636 45.8393C24.9234 44.3586 24.9292 42.7572 26.2765 36.7844C28.3738 27.4854 31.1082 22.9475 32.3941 21.337C32.6185 21.0553 32.8752 21.0385 32.8628 21.5007C32.8083 23.539 32.6153 28.6337 32.485 32.9633C32.1368 44.5453 33.8089 46.6921 36.1983 46.6921C38.0263 46.6921 40.6032 44.4029 43.3655 38.6094C45.0873 34.9987 46.7594 31.4584 47.9611 28.9072C48.7983 29.8839 49.7375 30.9348 50.6767 32.0594C52.8585 34.6687 53.5748 37.1483 53.0996 39.5006C52.736 41.299 51.367 43.1522 48.9305 41.351C48.2204 40.8257 47.9169 40.4196 47.2032 39.8268C47.0122 39.656 46.7863 39.5578 46.5523 39.5436C46.3184 39.5295 46.0861 39.6001 45.8829 39.747C45.0172 40.5729 44.4051 41.7511 44.1507 43.0814C43.8609 44.4094 44.9164 45.1115 46.0106 45.7255C46.9527 46.254 48.9776 46.733 50.269 46.7875C55.3002 46.9995 59.3328 43.7262 62.1367 35.284C62.6393 42.5762 64.7766 46.7027 68.4908 46.7027C70.9738 46.7027 73.4633 42.6585 74.5519 38.679C74.8244 40.1718 75.288 41.5987 75.9245 42.9037C78.7862 48.6174 84.3386 47.3876 87.1266 42.5353C87.9885 41.0361 88.12 40.497 88.12 40.497C88.5268 45.0783 91.4545 46.6786 93.1308 46.6786C95.0082 46.6786 96.9467 45.5602 98.3053 41.7059C98.461 42.1172 98.6356 42.5167 98.828 42.9025C101.69 48.6161 107.242 47.3864 110.03 42.5341C110.16 42.306 110.276 42.0997 110.375 41.9143L110.457 44.924L107.891 47.8911C103.587 52.8614 100.318 56.6313 100.077 61.0215C99.7714 66.6193 103.372 68.6997 106.1 68.9724C108.991 69.2618 111.473 67.2468 112.996 64.4283C114.336 61.9466 115.213 56.6047 115.149 51.3283C115.123 49.2155 115.081 46.5291 115.047 43.6496C116.82 41.0619 118.419 38.2924 119.827 35.37C121.535 31.8055 123.366 27.0187 124.303 23.2934C124.303 23.2934 125.893 23.3106 127.59 23.1706C128.133 23.126 128.288 23.2651 128.188 23.767C128.067 24.3725 126.044 34.2061 127.89 40.7561C129.154 45.24 132.003 46.6827 133.692 46.6827C135.669 46.6827 137.56 44.7995 138.574 42.0072C138.692 42.3124 138.822 42.6099 138.964 42.8984C141.825 48.6121 147.357 47.3753 150.166 42.53C150.541 41.8862 150.873 41.2044 151.159 40.4917C151.762 45.2331 154.688 46.6978 156.364 46.6978C158.11 46.6978 159.766 45.7972 161.11 41.7878C161.167 43.553 161.255 44.9956 161.395 45.4504C161.48 45.7288 161.976 46.078 162.337 46.2467C163.573 46.76 164.895 46.8429 166.165 46.4866C166.583 46.3801 166.908 45.9581 166.953 44.8683C167.07 42.0068 166.998 37.1991 167.686 33.6256C168.841 27.6299 169.919 25.3034 170.431 24.1531C170.717 23.5079 171.04 23.4015 171.051 24.0843C171.075 25.4659 171.13 29.5233 171.578 34.9737C171.907 38.9827 172.345 41.3526 172.682 42.1026C173.646 44.2469 174.835 44.3484 175.804 44.3484C176.421 44.3484 177.709 44.1343 177.594 42.7694C177.537 42.1042 177.636 37.9928 178.775 32.0847C179.383 29.1277 180.197 26.2438 181.207 23.4666C181.372 22.9966 181.449 23.3671 181.446 23.4391C181.352 26.096 181.14 34.7862 181.998 39.5391C183.163 45.9781 186.53 46.6982 187.704 46.6982C190.21 46.6982 192.259 44.2964 192.95 37.9765C193.117 36.454 192.871 35.2795 192.133 35.2795L192.135 35.2799ZM87.1737 31.3728C87.0301 34.7174 86.5123 37.5135 85.6812 39.5444C84.1778 43.2202 81.2029 44.3857 79.8914 39.0744C78.9458 35.2447 79.2677 30.0223 79.6611 27.2025C80.2459 23.0158 81.7078 20.0479 83.989 20.3291C86.3333 20.6173 87.4729 24.4134 87.1737 31.3728ZM110.077 31.4211C109.943 34.5795 109.293 37.7521 108.584 39.5448C107.123 43.246 104.062 44.4028 102.795 39.0748C101.928 35.4342 102.135 30.7236 102.564 27.7544C103.121 23.9021 104.47 20.3287 106.892 20.3287C109.248 20.3283 110.409 23.5845 110.077 31.4211H110.077ZM110.675 52.9686C110.642 58.7302 109.924 63.7819 108.38 65.2499C106.192 67.3304 103.25 65.7698 103.859 61.5655C104.398 57.8451 106.947 54.0457 110.681 49.4034C110.683 49.4026 110.689 50.4612 110.675 52.9686H110.675ZM150.211 31.4547C150.084 34.9221 149.475 37.6326 148.719 39.5444C147.255 43.2455 144.218 44.3947 142.929 39.0744C142.226 36.1744 142.193 31.3307 142.699 27.2844C143.213 23.162 144.648 20.0479 147.026 20.3291C149.373 20.6054 150.47 24.4134 150.212 31.4547H150.211Z" fill="#231F20"/>
<path d="M136.408 67H130.912C130.771 67 130.619 66.9844 130.455 66.9531C130.295 66.918 130.135 66.8652 129.975 66.7949C129.818 66.7246 129.668 66.6348 129.523 66.5254C129.379 66.4121 129.25 66.2773 129.137 66.1211C129.027 65.9609 128.939 65.7773 128.873 65.5703C128.807 65.3594 128.773 65.123 128.773 64.8613V60.7363C128.773 60.5957 128.789 60.4453 128.82 60.2852C128.855 60.1211 128.908 59.9609 128.979 59.8047C129.049 59.6445 129.141 59.4922 129.254 59.3477C129.367 59.2031 129.502 59.0762 129.658 58.9668C129.818 58.8535 130.002 58.7637 130.209 58.6973C130.416 58.6309 130.65 58.5977 130.912 58.5977H136.408V60.1211H130.912C130.713 60.1211 130.561 60.1738 130.455 60.2793C130.35 60.3848 130.297 60.541 130.297 60.748V64.8613C130.297 65.0566 130.35 65.209 130.455 65.3184C130.564 65.4238 130.717 65.4766 130.912 65.4766H136.408V67ZM145.566 67H138.617C138.508 67 138.406 66.9805 138.312 66.9414C138.219 66.9023 138.137 66.8496 138.066 66.7832C138 66.7129 137.947 66.6309 137.908 66.5371C137.869 66.4434 137.85 66.3418 137.85 66.2324V58.5977H139.373V65.4766H145.566V67ZM155.375 63.6016C155.375 64.1133 155.287 64.584 155.111 65.0137C154.936 65.4434 154.691 65.8145 154.379 66.127C154.066 66.4395 153.695 66.6836 153.266 66.8594C152.84 67.0312 152.375 67.1172 151.871 67.1172H149.809C149.305 67.1172 148.838 67.0312 148.408 66.8594C147.979 66.6836 147.607 66.4395 147.295 66.127C146.982 65.8145 146.736 65.4434 146.557 65.0137C146.381 64.584 146.293 64.1133 146.293 63.6016V61.9961C146.293 61.4883 146.381 61.0195 146.557 60.5898C146.736 60.1562 146.982 59.7852 147.295 59.4766C147.607 59.1641 147.979 58.9199 148.408 58.7441C148.838 58.5684 149.305 58.4805 149.809 58.4805H151.871C152.375 58.4805 152.84 58.5684 153.266 58.7441C153.695 58.9199 154.066 59.1641 154.379 59.4766C154.691 59.7852 154.936 60.1562 155.111 60.5898C155.287 61.0195 155.375 61.4883 155.375 61.9961V63.6016ZM153.852 61.9961C153.852 61.6953 153.803 61.4238 153.705 61.1816C153.611 60.9355 153.477 60.7266 153.301 60.5547C153.129 60.3789 152.92 60.2441 152.674 60.1504C152.432 60.0527 152.164 60.0039 151.871 60.0039H149.809C149.512 60.0039 149.24 60.0527 148.994 60.1504C148.752 60.2441 148.543 60.3789 148.367 60.5547C148.191 60.7266 148.055 60.9355 147.957 61.1816C147.863 61.4238 147.816 61.6953 147.816 61.9961V63.6016C147.816 63.9023 147.863 64.1758 147.957 64.4219C148.055 64.6641 148.191 64.873 148.367 65.0488C148.543 65.2207 148.752 65.3555 148.994 65.4531C149.24 65.5469 149.512 65.5938 149.809 65.5938H151.859C152.156 65.5938 152.426 65.5469 152.668 65.4531C152.914 65.3555 153.125 65.2207 153.301 65.0488C153.477 64.873 153.611 64.6641 153.705 64.4219C153.803 64.1758 153.852 63.9023 153.852 63.6016V61.9961ZM165.277 66.3496C165.277 66.459 165.256 66.5605 165.213 66.6543C165.174 66.748 165.119 66.8301 165.049 66.9004C164.982 66.9668 164.902 67.0195 164.809 67.0586C164.715 67.0977 164.615 67.1172 164.51 67.1172C164.416 67.1172 164.32 67.0996 164.223 67.0645C164.129 67.0293 164.045 66.9727 163.971 66.8945L158.404 61.082V67H156.881V59.248C156.881 59.0918 156.924 58.9512 157.01 58.8262C157.1 58.6973 157.213 58.6016 157.35 58.5391C157.494 58.4805 157.643 58.4668 157.795 58.498C157.947 58.5254 158.078 58.5957 158.188 58.709L163.754 64.5156V58.5977H165.277V66.3496ZM173.961 63.5664H169.15V62.0312H173.961V63.5664ZM174.646 67H169.15C168.939 67 168.709 66.9629 168.459 66.8887C168.209 66.8145 167.977 66.6934 167.762 66.5254C167.551 66.3535 167.373 66.1328 167.229 65.8633C167.088 65.5898 167.018 65.2559 167.018 64.8613V59.3652C167.018 59.2598 167.037 59.1602 167.076 59.0664C167.115 58.9727 167.168 58.8906 167.234 58.8203C167.305 58.75 167.387 58.6953 167.48 58.6562C167.574 58.6172 167.676 58.5977 167.785 58.5977H174.646V60.1211H168.541V64.8613C168.541 65.0605 168.594 65.2129 168.699 65.3184C168.805 65.4238 168.959 65.4766 169.162 65.4766H174.646V67ZM188.258 66.2324C188.258 66.3418 188.238 66.4434 188.199 66.5371C188.16 66.6309 188.105 66.7129 188.035 66.7832C187.965 66.8496 187.883 66.9023 187.789 66.9414C187.695 66.9805 187.596 67 187.49 67H184.057C183.732 67 183.404 66.9648 183.072 66.8945C182.74 66.8242 182.418 66.7168 182.105 66.5723C181.797 66.4238 181.506 66.2363 181.232 66.0098C180.959 65.7832 180.719 65.5156 180.512 65.207C180.309 64.8945 180.148 64.5391 180.031 64.1406C179.914 63.7383 179.855 63.291 179.855 62.7988V58.5977H181.379V62.7988C181.379 63.2285 181.438 63.5918 181.555 63.8887C181.676 64.1855 181.828 64.4336 182.012 64.6328C182.195 64.832 182.396 64.9883 182.615 65.1016C182.834 65.2148 183.041 65.2988 183.236 65.3535C183.436 65.4082 183.609 65.4434 183.758 65.459C183.91 65.4707 184.01 65.4766 184.057 65.4766H186.734V58.5977H188.258V66.2324ZM191.568 67H190.045V58.5977H191.568V67Z" fill="black"/>
</svg>
